<svg width="48" height="28" viewBox="0 0 48 28" fill="none" xmlns="http://www.w3.org/2000/svg">
<g clip-path="url(#clip0_981_991)">
<path d="M14.135 10.1695C14.135 10.7456 14.1973 11.2128 14.3062 11.5553C14.4308 11.8979 14.5865 12.2716 14.8045 12.6765C14.8824 12.801 14.9135 12.9256 14.9135 13.0346C14.9135 13.1903 14.8201 13.346 14.6177 13.5017L13.6367 14.1557C13.4965 14.2492 13.3564 14.2959 13.2318 14.2959C13.0761 14.2959 12.9204 14.218 12.7647 14.0779C12.5467 13.8443 12.3598 13.5952 12.2041 13.346C12.0484 13.0813 11.8927 12.7855 11.7214 12.4273C10.5069 13.8599 8.98088 14.5762 7.14347 14.5762C5.83549 14.5762 4.79222 14.2024 4.02923 13.455C3.26623 12.7076 2.87695 11.711 2.87695 10.4653C2.87695 9.14179 3.34409 8.06737 4.29394 7.25767C5.24378 6.44796 6.50505 6.04311 8.10889 6.04311C8.63831 6.04311 9.18331 6.08982 9.75944 6.16768C10.3356 6.24554 10.9273 6.37011 11.5501 6.51025V5.37355C11.5501 4.19013 11.301 3.36485 10.8183 2.88215C10.32 2.39944 9.47916 2.16587 8.28018 2.16587C7.73518 2.16587 7.17462 2.22815 6.59848 2.36829C6.02235 2.50844 5.46178 2.67972 4.91679 2.89772C4.66765 3.00672 4.48079 3.069 4.37179 3.10014C4.26279 3.13129 4.18494 3.14686 4.12265 3.14686C3.90466 3.14686 3.79566 2.99114 3.79566 2.66415V1.90116C3.79566 1.65202 3.8268 1.46516 3.90466 1.35616C3.98251 1.24716 4.12265 1.13817 4.34065 1.02917C4.88564 0.748885 5.53964 0.515316 6.30263 0.328461C7.06562 0.126035 7.87532 0.0326073 8.73174 0.0326073C10.5847 0.0326073 11.9394 0.453031 12.8114 1.29388C13.6678 2.13473 14.1038 3.41157 14.1038 5.12441V10.1695H14.135ZM7.81304 12.5363C8.32689 12.5363 8.85631 12.4429 9.41688 12.256C9.97744 12.0692 10.4757 11.7266 10.8961 11.2595C11.1453 10.9636 11.3321 10.6366 11.4256 10.2629C11.519 9.88921 11.5813 9.43764 11.5813 8.90822V8.25423C11.1297 8.14523 10.647 8.0518 10.1487 7.98952C9.65044 7.92723 9.16774 7.89609 8.68503 7.89609C7.64176 7.89609 6.87876 8.09851 6.36491 8.51894C5.85106 8.93936 5.60192 9.53107 5.60192 10.3096C5.60192 11.0415 5.78878 11.5865 6.17806 11.9602C6.55177 12.3495 7.09676 12.5363 7.81304 12.5363ZM20.3167 14.218C20.0365 14.218 19.8496 14.1713 19.725 14.0623C19.6005 13.9689 19.4915 13.7509 19.398 13.455L15.7388 1.41845C15.6454 1.10702 15.5987 0.904597 15.5987 0.795599C15.5987 0.546459 15.7232 0.406317 15.9724 0.406317H17.4984C17.7942 0.406317 17.9966 0.453031 18.1056 0.56203C18.2302 0.655457 18.3236 0.873455 18.4171 1.16931L21.033 11.4775L23.4621 1.16931C23.54 0.857884 23.6334 0.655457 23.758 0.56203C23.8826 0.468602 24.1006 0.406317 24.3808 0.406317H25.6265C25.9224 0.406317 26.1248 0.453031 26.2494 0.56203C26.374 0.655457 26.483 0.873455 26.5452 1.16931L29.0055 11.602L31.6993 1.16931C31.7928 0.857884 31.9018 0.655457 32.0108 0.56203C32.1353 0.468602 32.3378 0.406317 32.618 0.406317H34.0662C34.3153 0.406317 34.4554 0.530887 34.4554 0.795599C34.4554 0.873455 34.4399 0.951311 34.4243 1.04474C34.4087 1.13817 34.3776 1.26274 34.3153 1.43402L30.5626 13.4706C30.4692 13.782 30.3602 13.9844 30.2356 14.0779C30.1111 14.1713 29.9086 14.2336 29.6439 14.2336H28.3048C28.0089 14.2336 27.8065 14.1869 27.6819 14.0779C27.5574 13.9689 27.4484 13.7664 27.3861 13.455L24.9726 3.41157L22.5746 13.4395C22.4967 13.7509 22.4033 13.9533 22.2787 14.0623C22.1542 14.1713 21.9362 14.218 21.6559 14.218H20.3167ZM40.3258 14.6384C39.5161 14.6384 38.7064 14.545 37.9278 14.3582C37.1493 14.1713 36.542 13.9689 36.1371 13.7353C35.888 13.5952 35.7167 13.4395 35.6544 13.2993C35.5921 13.1592 35.561 13.0035 35.561 12.8633V12.0692C35.561 11.7422 35.6856 11.5865 35.9191 11.5865C36.0126 11.5865 36.106 11.602 36.1994 11.6332C36.2929 11.6643 36.433 11.7266 36.5887 11.7889C37.1181 12.0225 37.6943 12.2093 38.3015 12.3339C38.9244 12.4585 39.5317 12.5207 40.1545 12.5207C41.1355 12.5207 41.8985 12.3495 42.4279 12.0069C42.9573 11.6643 43.2376 11.166 43.2376 10.5276C43.2376 10.0916 43.0975 9.73349 42.8172 9.43764C42.5369 9.14179 42.0075 8.87708 41.2445 8.62794L38.9867 7.92723C37.85 7.56909 37.0091 7.03967 36.4953 6.33896C35.9814 5.65383 35.7167 4.89084 35.7167 4.08113C35.7167 3.42714 35.8569 2.851 36.1371 2.35272C36.4174 1.85444 36.7911 1.41845 37.2583 1.07588C37.7254 0.717742 38.2548 0.453031 38.8777 0.266176C39.5005 0.0793211 40.1545 0.00146484 40.8397 0.00146484C41.1822 0.00146484 41.5404 0.0170361 41.8829 0.0637498C42.2411 0.110464 42.5681 0.172749 42.8951 0.235034C43.2065 0.31289 43.5023 0.390746 43.7826 0.484174C44.0629 0.577601 44.2809 0.671029 44.4366 0.764456C44.6546 0.889026 44.8103 1.0136 44.9037 1.15374C44.9972 1.27831 45.0439 1.44959 45.0439 1.66759V2.39944C45.0439 2.72643 44.9193 2.89772 44.6858 2.89772C44.5612 2.89772 44.3588 2.83543 44.094 2.71086C43.2065 2.30601 42.2099 2.10358 41.1044 2.10358C40.2168 2.10358 39.5161 2.24372 39.0334 2.53958C38.5507 2.83543 38.3015 3.287 38.3015 3.92542C38.3015 4.36141 38.4573 4.73512 38.7687 5.03098C39.0801 5.32683 39.6562 5.62269 40.4815 5.8874L42.6926 6.5881C43.8138 6.94624 44.6235 7.44452 45.1062 8.08294C45.5889 8.72136 45.8225 9.45321 45.8225 10.2629C45.8225 10.9325 45.6823 11.5398 45.4176 12.0692C45.1373 12.5986 44.7636 13.0657 44.2809 13.4395C43.7982 13.8287 43.2221 14.109 42.5525 14.3114C41.8518 14.5294 41.1199 14.6384 40.3258 14.6384Z" fill="#252F3E"/>
<path d="M43.269 22.206C38.1461 25.9899 30.703 27.9985 24.3033 27.9985C15.3342 27.9985 7.25275 24.6819 1.14882 19.1696C0.666109 18.7337 1.1021 18.1419 1.67824 18.4845C8.28045 22.315 16.4242 24.6352 24.8483 24.6352C30.5318 24.6352 36.7758 23.4517 42.5216 21.0226C43.378 20.6333 44.1099 21.5832 43.269 22.206Z" fill="#FF9900"/>
<path d="M45.4023 19.7769C44.7483 18.9361 41.0735 19.3721 39.4074 19.5745C38.9091 19.6368 38.8312 19.2008 39.2828 18.8738C42.2102 16.8184 47.0217 17.4101 47.5823 18.0952C48.1428 18.7959 47.4266 23.6074 44.686 25.912C44.2656 26.2701 43.8607 26.0833 44.0476 25.6161C44.6704 24.0746 46.0563 20.6022 45.4023 19.7769Z" fill="#FF9900"/>
</g>
<defs>
<clipPath id="clip0_981_991">
<rect width="46.8227" height="28" fill="white" transform="translate(0.946289)"/>
</clipPath>
</defs>
</svg>
