<svg width="28" height="28" viewBox="0 0 28 28" fill="none" xmlns="http://www.w3.org/2000/svg">
<mask id="mask0_981_717" style="mask-type:luminance" maskUnits="userSpaceOnUse" x="0" y="0" width="28" height="28">
<path d="M14 28C6.26752 28 0 21.7325 0 14C0 6.26752 6.26752 0 14 0C21.7325 0 28 6.26752 28 14C28 21.7325 21.7325 28 14 28Z" fill="white"/>
</mask>
<g mask="url(#mask0_981_717)">
<path fill-rule="evenodd" clip-rule="evenodd" d="M13.9998 14L-5.80176 13.8779L-5.78384 13.1499L13.9998 14Z" fill="#FEFEFF"/>
<path fill-rule="evenodd" clip-rule="evenodd" d="M13.9999 13.9999L-5.78711 13.2708L-5.75687 12.6638L13.9999 13.9999Z" fill="#FDFEFF"/>
<path fill-rule="evenodd" clip-rule="evenodd" d="M14.0003 13.9999L-5.76318 12.7859L-5.71838 12.1799L14.0003 13.9999Z" fill="#FCFDFF"/>
<path fill-rule="evenodd" clip-rule="evenodd" d="M13.9997 14L-5.72803 12.3009L-5.66867 11.6961L13.9997 14Z" fill="#FBFCFF"/>
<path fill-rule="evenodd" clip-rule="evenodd" d="M14.0003 13.9999L-5.6792 11.8171L-5.60528 11.2145L14.0003 13.9999Z" fill="#FAFCFF"/>
<path fill-rule="evenodd" clip-rule="evenodd" d="M13.9996 13.9999L-5.62061 11.3354L-5.53213 10.734L13.9996 13.9999Z" fill="#F9FBFF"/>
<path fill-rule="evenodd" clip-rule="evenodd" d="M13.9997 14L-5.54883 10.8539L-5.44579 10.2558L13.9997 14Z" fill="#F8FAFF"/>
<path fill-rule="evenodd" clip-rule="evenodd" d="M14.0003 14L-5.46533 10.3757L-5.34773 9.77982L14.0003 14Z" fill="#F7FAFF"/>
<path fill-rule="evenodd" clip-rule="evenodd" d="M13.9999 13.9999L-5.37158 9.89963L-5.2383 9.30603L13.9999 13.9999Z" fill="#F6F9FF"/>
<path fill-rule="evenodd" clip-rule="evenodd" d="M14 14L-5.26514 9.42475L-5.1173 8.83563L14 14Z" fill="#F5F8FF"/>
<path fill-rule="evenodd" clip-rule="evenodd" d="M13.9994 13.9999L-5.14697 8.95322L-4.98569 8.36746L13.9994 13.9999Z" fill="#F4F8FF"/>
<path fill-rule="evenodd" clip-rule="evenodd" d="M14 14L-5.01758 8.48509L-4.84062 7.90381L14 14Z" fill="#F3F7FF"/>
<path fill-rule="evenodd" clip-rule="evenodd" d="M13.9995 13.9999L-4.87695 8.02025L-4.68543 7.44345L13.9995 13.9999Z" fill="#F2F6FF"/>
<path fill-rule="evenodd" clip-rule="evenodd" d="M14 14L-4.72412 7.55883L-4.51916 6.98651L14 14Z" fill="#F1F6FF"/>
<path fill-rule="evenodd" clip-rule="evenodd" d="M13.9999 13.9999L-4.55957 7.10075L-4.34117 6.53403L13.9999 13.9999Z" fill="#F0F5FF"/>
<path fill-rule="evenodd" clip-rule="evenodd" d="M14 14L-4.38477 6.64718L-4.15293 6.08606L14 14Z" fill="#EFF4FF"/>
<path fill-rule="evenodd" clip-rule="evenodd" d="M14.0001 14L-4.19873 6.19805L-3.95233 5.64365L14.0001 14Z" fill="#EEF3FF"/>
<path fill-rule="evenodd" clip-rule="evenodd" d="M13.9998 14L-4.00195 5.75452L-3.74211 5.20572L13.9998 14Z" fill="#EDF3FF"/>
<path fill-rule="evenodd" clip-rule="evenodd" d="M14.0001 14L-3.79443 5.31548L-3.52115 4.77228L14.0001 14Z" fill="#ECF2FF"/>
<path fill-rule="evenodd" clip-rule="evenodd" d="M14.0005 13.9999L-3.57568 4.88088L-3.28896 4.34552L14.0005 13.9999Z" fill="#EBF1FF"/>
<path fill-rule="evenodd" clip-rule="evenodd" d="M13.9999 14L-3.34668 4.4531L-3.04764 3.92334L13.9999 14Z" fill="#EAF1FF"/>
<path fill-rule="evenodd" clip-rule="evenodd" d="M13.9999 14L-3.10693 4.02971L-2.79445 3.50891L13.9999 14Z" fill="#E9F0FF"/>
<path fill-rule="evenodd" clip-rule="evenodd" d="M13.9997 14L-2.85742 3.61308L-2.53262 3.099L13.9997 14Z" fill="#E8EFFF"/>
<path fill-rule="evenodd" clip-rule="evenodd" d="M13.9996 14L-2.59766 3.20205L-2.25942 2.69693L13.9996 14Z" fill="#E7EFFF"/>
<path fill-rule="evenodd" clip-rule="evenodd" d="M13.9997 13.9999L-2.32764 2.7977L-1.9782 2.30154L13.9997 13.9999Z" fill="#E6EEFF"/>
<path fill-rule="evenodd" clip-rule="evenodd" d="M14 13.9999L-2.04736 2.40122L-1.6856 1.9129L14 13.9999Z" fill="#E5EDFF"/>
<path fill-rule="evenodd" clip-rule="evenodd" d="M14.0001 14L-1.7583 2.01037L-1.38422 1.53101L14.0001 14Z" fill="#E4EDFF"/>
<path fill-rule="evenodd" clip-rule="evenodd" d="M13.9999 13.9999L-1.45947 1.6273L-1.07419 1.15802L13.9999 13.9999Z" fill="#E3ECFF"/>
<path fill-rule="evenodd" clip-rule="evenodd" d="M13.9998 14L-1.15039 1.25213L-0.753911 0.791809L13.9998 14Z" fill="#E2EBFF"/>
<path fill-rule="evenodd" clip-rule="evenodd" d="M13.9998 14L-0.833496 0.883651L-0.425816 0.433411L13.9998 14Z" fill="#E1EBFF"/>
<path fill-rule="evenodd" clip-rule="evenodd" d="M14 14L-0.507324 0.524144L-0.0884443 0.0839844L14 14Z" fill="#E0EAFF"/>
<path fill-rule="evenodd" clip-rule="evenodd" d="M14.0001 13.9999L-0.172363 0.17239L0.257717 -0.25769L14.0001 13.9999Z" fill="#DFE9FF"/>
<path fill-rule="evenodd" clip-rule="evenodd" d="M13.9999 14L0.172363 -0.172511L0.611403 -0.590271L13.9999 14Z" fill="#DEE9FF"/>
<path fill-rule="evenodd" clip-rule="evenodd" d="M14.0003 13.9999L0.524414 -0.50742L0.974654 -0.9151L14.0003 13.9999Z" fill="#DDE8FF"/>
<path fill-rule="evenodd" clip-rule="evenodd" d="M14.0001 14L0.883789 -0.833317L1.34411 -1.2298L14.0001 14Z" fill="#DCE7FF"/>
<path fill-rule="evenodd" clip-rule="evenodd" d="M14.0003 14L1.25244 -1.15024L1.72172 -1.53552L14.0003 14Z" fill="#DBE7FF"/>
<path fill-rule="evenodd" clip-rule="evenodd" d="M14.0001 14L1.62744 -1.45938L2.1068 -1.83234L14.0001 14Z" fill="#DAE6FF"/>
<path fill-rule="evenodd" clip-rule="evenodd" d="M13.9999 14L2.01025 -1.75842L2.49857 -2.12018L13.9999 14Z" fill="#D9E5FF"/>
<path fill-rule="evenodd" clip-rule="evenodd" d="M14.0001 14L2.40137 -2.04741L2.89753 -2.39685L14.0001 14Z" fill="#D8E5FF"/>
<path fill-rule="evenodd" clip-rule="evenodd" d="M14.0001 14L2.79785 -2.32737L3.30297 -2.66449L14.0001 14Z" fill="#D7E4FF"/>
<path fill-rule="evenodd" clip-rule="evenodd" d="M14.0001 14L3.20215 -2.59732L3.71623 -2.92212L14.0001 14Z" fill="#D6E3FF"/>
<path fill-rule="evenodd" clip-rule="evenodd" d="M13.9997 14L3.61279 -2.85714L4.13359 -3.16962L13.9997 14Z" fill="#D5E3FF"/>
<path fill-rule="evenodd" clip-rule="evenodd" d="M14 14L4.02979 -3.1069L4.55843 -3.40594L14 14Z" fill="#D4E2FF"/>
<path fill-rule="evenodd" clip-rule="evenodd" d="M14 14L4.45312 -3.34658L4.98848 -3.6333L14 14Z" fill="#D3E1FF"/>
<path fill-rule="evenodd" clip-rule="evenodd" d="M13.9999 13.9999L4.88086 -3.57623L5.42406 -3.84839L13.9999 13.9999Z" fill="#D2E0FF"/>
<path fill-rule="evenodd" clip-rule="evenodd" d="M13.9999 13.9999L5.31543 -3.79462L5.86423 -4.05334L13.9999 13.9999Z" fill="#D1E0FF"/>
<path fill-rule="evenodd" clip-rule="evenodd" d="M13.9998 13.9999L5.75439 -4.00183L6.30991 -4.24823L13.9998 13.9999Z" fill="#D0DFFF"/>
<path fill-rule="evenodd" clip-rule="evenodd" d="M14.0002 14L6.19824 -4.19892L6.76048 -4.43188L14.0002 14Z" fill="#CFDEFF"/>
<path fill-rule="evenodd" clip-rule="evenodd" d="M14.0003 13.9999L6.64746 -4.38487L7.2153 -4.60327L14.0003 13.9999Z" fill="#CEDEFF"/>
<path fill-rule="evenodd" clip-rule="evenodd" d="M13.9998 14L7.10059 -4.55957L7.67291 -4.76453L13.9998 14Z" fill="#CDDDFF"/>
<path fill-rule="evenodd" clip-rule="evenodd" d="M13.9997 13.9999L7.55859 -4.72423L8.13539 -4.91351L13.9997 13.9999Z" fill="#CCDCFF"/>
<path fill-rule="evenodd" clip-rule="evenodd" d="M13.9997 14L8.02002 -4.87653L8.6013 -5.05237L13.9997 14Z" fill="#CBDCFF"/>
<path fill-rule="evenodd" clip-rule="evenodd" d="M13.9997 13.9999L8.48486 -5.01768L9.07062 -5.17896L13.9997 13.9999Z" fill="#CADBFF"/>
<path fill-rule="evenodd" clip-rule="evenodd" d="M13.9998 13.9999L8.95312 -5.14647L9.54224 -5.29431L13.9998 13.9999Z" fill="#C9DAFF"/>
<path fill-rule="evenodd" clip-rule="evenodd" d="M14 13.9999L9.4248 -5.26518L10.0173 -5.39734L14 13.9999Z" fill="#C8DAFF"/>
<path fill-rule="evenodd" clip-rule="evenodd" d="M14.0002 14L9.8999 -5.37154L10.4946 -5.48914L14.0002 14Z" fill="#C7D9FF"/>
<path fill-rule="evenodd" clip-rule="evenodd" d="M13.9998 13.9999L10.3755 -5.46566L10.9736 -5.56982L13.9998 13.9999Z" fill="#C6D8FF"/>
<path fill-rule="evenodd" clip-rule="evenodd" d="M14.0001 14L10.854 -5.54852L11.4554 -5.63812L14.0001 14Z" fill="#C5D8FF"/>
<path fill-rule="evenodd" clip-rule="evenodd" d="M13.9999 14L11.3354 -5.62017L11.938 -5.69409L13.9999 14Z" fill="#C4D7FF"/>
<path fill-rule="evenodd" clip-rule="evenodd" d="M14.0003 13.9999L11.8174 -5.67959L12.4222 -5.73895L14.0003 13.9999Z" fill="#C3D6FF"/>
<path fill-rule="evenodd" clip-rule="evenodd" d="M13.9998 14L12.3008 -5.72772L12.9067 -5.77252L13.9998 14Z" fill="#C2D6FF"/>
<path fill-rule="evenodd" clip-rule="evenodd" d="M14.0002 14L12.7861 -5.76354L13.3932 -5.79266L14.0002 14Z" fill="#C1D5FF"/>
<path fill-rule="evenodd" clip-rule="evenodd" d="M13.9996 14L13.2705 -5.78708L13.8775 -5.80164L13.9996 14Z" fill="#C0D4FF"/>
<path fill-rule="evenodd" clip-rule="evenodd" d="M13.9999 13.9999L13.7568 -5.79944H14.3639L13.9999 13.9999Z" fill="#BFD4FF"/>
<path fill-rule="evenodd" clip-rule="evenodd" d="M14 13.9999L14.243 -5.79944L14.8501 -5.78376L14 13.9999Z" fill="#BED3FF"/>
<path fill-rule="evenodd" clip-rule="evenodd" d="M14 13.9999L14.7291 -5.78711L15.335 -5.75687L14 13.9999Z" fill="#BDD2FF"/>
<path fill-rule="evenodd" clip-rule="evenodd" d="M14 14L15.2141 -5.76355L15.82 -5.71875L14 14Z" fill="#BCD2FF"/>
<path fill-rule="evenodd" clip-rule="evenodd" d="M14 14L15.699 -5.72772L16.3038 -5.66836L14 14Z" fill="#BBD1FF"/>
<path fill-rule="evenodd" clip-rule="evenodd" d="M14 14L16.1818 -5.67957L16.7854 -5.60565L14 14Z" fill="#BAD0FF"/>
<path fill-rule="evenodd" clip-rule="evenodd" d="M14 14L16.6645 -5.62018L17.2659 -5.5317L14 14Z" fill="#B9D0FF"/>
<path fill-rule="evenodd" clip-rule="evenodd" d="M14 14L17.145 -5.54852L17.7442 -5.44548L14 14Z" fill="#B8CFFF"/>
<path fill-rule="evenodd" clip-rule="evenodd" d="M14 14L17.6243 -5.46564L18.2202 -5.34804L14 14Z" fill="#B7CEFF"/>
<path fill-rule="evenodd" clip-rule="evenodd" d="M14 13.9999L18.1003 -5.37158L18.6939 -5.2383L14 13.9999Z" fill="#B6CDFF"/>
<path fill-rule="evenodd" clip-rule="evenodd" d="M14 14L18.5752 -5.26514L19.1643 -5.1173L14 14Z" fill="#B5CDFF"/>
<path fill-rule="evenodd" clip-rule="evenodd" d="M14 13.9999L19.0467 -5.14648L19.6314 -4.9852L14 13.9999Z" fill="#B4CCFF"/>
<path fill-rule="evenodd" clip-rule="evenodd" d="M14 14L19.5149 -5.01764L20.0962 -4.84068L14 14Z" fill="#B3CBFF"/>
<path fill-rule="evenodd" clip-rule="evenodd" d="M14 14L19.9797 -4.87653L20.5565 -4.68501L14 14Z" fill="#B2CBFF"/>
<path fill-rule="evenodd" clip-rule="evenodd" d="M14 13.9999L20.4411 -4.72424L21.0134 -4.51928L14 13.9999Z" fill="#B1CAFF"/>
<path fill-rule="evenodd" clip-rule="evenodd" d="M14 13.9999L20.8992 -4.55957L21.4659 -4.34117L14 13.9999Z" fill="#B0C9FF"/>
<path fill-rule="evenodd" clip-rule="evenodd" d="M14 13.9999L21.3517 -4.38489L21.9139 -4.15305L14 13.9999Z" fill="#AFC9FF"/>
<path fill-rule="evenodd" clip-rule="evenodd" d="M14 14L21.8008 -4.19891L22.3563 -3.95251L14 14Z" fill="#AEC8FF"/>
<path fill-rule="evenodd" clip-rule="evenodd" d="M14 14L22.2454 -4.00177L22.7942 -3.74193L14 14Z" fill="#ADC7FF"/>
<path fill-rule="evenodd" clip-rule="evenodd" d="M14 13.9999L22.6845 -3.79462L23.2277 -3.52134L14 13.9999Z" fill="#ACC7FF"/>
<path fill-rule="evenodd" clip-rule="evenodd" d="M14 13.9999L23.119 -3.57623L23.6544 -3.28951L14 13.9999Z" fill="#ABC6FF"/>
<path fill-rule="evenodd" clip-rule="evenodd" d="M14 13.9999L23.5469 -3.34662L24.0766 -3.04758L14 13.9999Z" fill="#AAC5FF"/>
<path fill-rule="evenodd" clip-rule="evenodd" d="M14 13.9999L23.9702 -3.10693L24.491 -2.79445L14 13.9999Z" fill="#A9C5FF"/>
<path fill-rule="evenodd" clip-rule="evenodd" d="M14 13.9999L24.3869 -2.85718L24.8998 -2.53238L14 13.9999Z" fill="#A8C4FF"/>
<path fill-rule="evenodd" clip-rule="evenodd" d="M14 13.9999L24.7979 -2.59735L25.303 -2.25911L14 13.9999Z" fill="#A7C3FF"/>
<path fill-rule="evenodd" clip-rule="evenodd" d="M14 14L25.2022 -2.32739L25.6984 -1.97795L14 14Z" fill="#A6C3FF"/>
<path fill-rule="evenodd" clip-rule="evenodd" d="M14 14L25.5987 -2.04736L26.087 -1.6856L14 14Z" fill="#A5C2FF"/>
<path fill-rule="evenodd" clip-rule="evenodd" d="M14 14L25.9896 -1.75842L26.4678 -1.38434L14 14Z" fill="#A4C1FF"/>
<path fill-rule="evenodd" clip-rule="evenodd" d="M14 13.9999L26.3726 -1.45941L26.8419 -1.07413L14 13.9999Z" fill="#A3C1FF"/>
<path fill-rule="evenodd" clip-rule="evenodd" d="M14 13.9999L26.7478 -1.15033L27.2082 -0.75385L14 13.9999Z" fill="#A2C0FF"/>
<path fill-rule="evenodd" clip-rule="evenodd" d="M14 14L27.1163 -0.833313L27.5666 -0.425633L14 14Z" fill="#A1BFFF"/>
<path fill-rule="evenodd" clip-rule="evenodd" d="M14 13.9999L27.4758 -0.507446L27.916 -0.0885663L14 13.9999Z" fill="#A0BFFF"/>
<path fill-rule="evenodd" clip-rule="evenodd" d="M14 14L27.8275 -0.172485L28.2576 0.257595L14 14Z" fill="#9FBEFF"/>
<path fill-rule="evenodd" clip-rule="evenodd" d="M14 13.9999L28.1714 0.172424L28.5902 0.611464L14 13.9999Z" fill="#9EBDFF"/>
<path fill-rule="evenodd" clip-rule="evenodd" d="M14 13.9999L28.5074 0.524109L28.915 0.974349L14 13.9999Z" fill="#9DBDFF"/>
<path fill-rule="evenodd" clip-rule="evenodd" d="M14 14L28.8333 0.883667L29.2298 1.34399L14 14Z" fill="#9CBCFF"/>
<path fill-rule="evenodd" clip-rule="evenodd" d="M14 13.9999L29.1502 1.25208L29.5355 1.72136L14 13.9999Z" fill="#9BBBFF"/>
<path fill-rule="evenodd" clip-rule="evenodd" d="M14 14L29.4594 1.62732L29.8323 2.10668L14 14Z" fill="#9ABAFF"/>
<path fill-rule="evenodd" clip-rule="evenodd" d="M14 13.9999L29.7584 2.01035L30.1202 2.49867L14 13.9999Z" fill="#99BAFF"/>
<path fill-rule="evenodd" clip-rule="evenodd" d="M14 13.9999L30.0474 2.40121L30.3968 2.89737L14 13.9999Z" fill="#98B9FF"/>
<path fill-rule="evenodd" clip-rule="evenodd" d="M14 13.9999L30.3274 2.7977L30.6645 3.30282L14 13.9999Z" fill="#97B8FF"/>
<path fill-rule="evenodd" clip-rule="evenodd" d="M14 14L30.5973 3.20206L30.9221 3.71614L14 14Z" fill="#96B8FF"/>
<path fill-rule="evenodd" clip-rule="evenodd" d="M14 13.9999L30.8571 3.61307L31.1696 4.13387L14 13.9999Z" fill="#95B7FF"/>
<path fill-rule="evenodd" clip-rule="evenodd" d="M14 14L31.1069 4.02972L31.4059 4.55836L14 14Z" fill="#94B6FF"/>
<path fill-rule="evenodd" clip-rule="evenodd" d="M14 13.9999L31.3466 4.45306L31.6322 4.98842L14 13.9999Z" fill="#93B6FF"/>
<path fill-rule="evenodd" clip-rule="evenodd" d="M14 14L31.575 4.88092L31.8483 5.42412L14 14Z" fill="#92B5FF"/>
<path fill-rule="evenodd" clip-rule="evenodd" d="M14 13.9999L31.7946 5.31546L32.0533 5.86426L14 13.9999Z" fill="#91B4FF"/>
<path fill-rule="evenodd" clip-rule="evenodd" d="M14 14L32.0018 5.75452L32.2482 6.31004L14 14Z" fill="#90B4FF"/>
<path fill-rule="evenodd" clip-rule="evenodd" d="M14 13.9999L32.1989 6.19803L32.4307 6.76027L14 13.9999Z" fill="#8FB3FF"/>
<path fill-rule="evenodd" clip-rule="evenodd" d="M14 14L32.3848 6.64716L32.6032 7.215L14 14Z" fill="#8EB2FF"/>
<path fill-rule="evenodd" clip-rule="evenodd" d="M14 14L32.5595 7.10077L32.7645 7.67309L14 14Z" fill="#8DB2FF"/>
<path fill-rule="evenodd" clip-rule="evenodd" d="M14 14L32.723 7.55884L32.9134 8.13564L14 14Z" fill="#8CB1FF"/>
<path fill-rule="evenodd" clip-rule="evenodd" d="M14 13.9999L32.8754 8.02026L33.0523 8.60154L14 13.9999Z" fill="#8BB0FF"/>
<path fill-rule="evenodd" clip-rule="evenodd" d="M14 14L33.0165 8.48508L33.1789 9.07084L14 14Z" fill="#8AB0FF"/>
<path fill-rule="evenodd" clip-rule="evenodd" d="M14 14L33.1464 8.95325L33.2942 9.54237L14 14Z" fill="#89AFFF"/>
<path fill-rule="evenodd" clip-rule="evenodd" d="M14 14L33.2651 9.42477L33.3973 10.0173L14 14Z" fill="#88AEFF"/>
<path fill-rule="evenodd" clip-rule="evenodd" d="M14 14L33.3704 9.89966L33.4891 10.4944L14 14Z" fill="#87AEFF"/>
<path fill-rule="evenodd" clip-rule="evenodd" d="M14 14L33.4656 10.3756L33.5698 10.9737L14 14Z" fill="#86ADFF"/>
<path fill-rule="evenodd" clip-rule="evenodd" d="M14 13.9999L33.5485 10.8539L33.6381 11.4553L14 13.9999Z" fill="#85ACFF"/>
<path fill-rule="evenodd" clip-rule="evenodd" d="M14 14L33.6202 11.3355L33.6941 11.938L14 14Z" fill="#84ACFF"/>
<path fill-rule="evenodd" clip-rule="evenodd" d="M14 14L33.6795 11.8171L33.7389 12.4219L14 14Z" fill="#83ABFF"/>
<path fill-rule="evenodd" clip-rule="evenodd" d="M14 13.9999L33.7277 12.3009L33.7725 12.9068L14 13.9999Z" fill="#82AAFF"/>
<path fill-rule="evenodd" clip-rule="evenodd" d="M14 13.9999L33.7635 12.7859L33.7926 13.3929L14 13.9999Z" fill="#81AAFF"/>
<path fill-rule="evenodd" clip-rule="evenodd" d="M14 14L33.787 13.2708L33.8016 13.8779L14 14Z" fill="#80A9FF"/>
<path fill-rule="evenodd" clip-rule="evenodd" d="M14 13.9999L33.7982 13.7569V14.3639L14 13.9999Z" fill="#7FA8FF"/>
<path fill-rule="evenodd" clip-rule="evenodd" d="M14 14L33.7982 14.243L33.7837 14.85L14 14Z" fill="#7EA7FF"/>
<path fill-rule="evenodd" clip-rule="evenodd" d="M14 14L33.787 14.7291L33.7568 15.335L14 14Z" fill="#7DA7FF"/>
<path fill-rule="evenodd" clip-rule="evenodd" d="M14 14L33.7635 15.214L33.7187 15.82L14 14Z" fill="#7CA6FF"/>
<path fill-rule="evenodd" clip-rule="evenodd" d="M14 14L33.7277 15.699L33.6683 16.3038L14 14Z" fill="#7BA5FF"/>
<path fill-rule="evenodd" clip-rule="evenodd" d="M14 14L33.6795 16.1817L33.6056 16.7854L14 14Z" fill="#7AA5FF"/>
<path fill-rule="evenodd" clip-rule="evenodd" d="M14 14L33.6202 16.6644L33.5306 17.2659L14 14Z" fill="#79A4FF"/>
<path fill-rule="evenodd" clip-rule="evenodd" d="M14 14L33.5485 17.1449L33.4454 17.7441L14 14Z" fill="#78A3FF"/>
<path fill-rule="evenodd" clip-rule="evenodd" d="M14 14L33.4656 17.6243L33.3469 18.2201L14 14Z" fill="#77A3FF"/>
<path fill-rule="evenodd" clip-rule="evenodd" d="M14 14L33.3704 18.1003L33.2382 18.6939L14 14Z" fill="#76A2FF"/>
<path fill-rule="evenodd" clip-rule="evenodd" d="M14 14L33.2651 18.5752L33.1173 19.1643L14 14Z" fill="#75A1FF"/>
<path fill-rule="evenodd" clip-rule="evenodd" d="M14 14L33.1464 19.0467L32.9851 19.6313L14 14Z" fill="#74A1FF"/>
<path fill-rule="evenodd" clip-rule="evenodd" d="M14 14L33.0165 19.5148L32.8406 20.0961L14 14Z" fill="#73A0FF"/>
<path fill-rule="evenodd" clip-rule="evenodd" d="M14 14L32.8754 19.9796L32.685 20.5564L14 14Z" fill="#729FFF"/>
<path fill-rule="evenodd" clip-rule="evenodd" d="M14 14L32.723 20.4411L32.5192 21.0134L14 14Z" fill="#719FFF"/>
<path fill-rule="evenodd" clip-rule="evenodd" d="M14 14L32.5595 20.8992L32.3411 21.4659L14 14Z" fill="#709EFF"/>
<path fill-rule="evenodd" clip-rule="evenodd" d="M14 14L32.3848 21.3516L32.1518 21.9139L14 14Z" fill="#6F9DFF"/>
<path fill-rule="evenodd" clip-rule="evenodd" d="M14 14L32.1989 21.8008L31.9525 22.3563L14 14Z" fill="#6E9DFF"/>
<path fill-rule="evenodd" clip-rule="evenodd" d="M14 14L32.0018 22.2454L31.7419 22.7942L14 14Z" fill="#6D9CFF"/>
<path fill-rule="evenodd" clip-rule="evenodd" d="M14 14L31.7946 22.6845L31.5213 23.2276L14 14Z" fill="#6C9BFF"/>
<path fill-rule="evenodd" clip-rule="evenodd" d="M14 14L31.575 23.119L31.2894 23.6544L14 14Z" fill="#6B9BFF"/>
<path fill-rule="evenodd" clip-rule="evenodd" d="M14 14L31.3466 23.5468L31.0475 24.0766L14 14Z" fill="#6A9AFF"/>
<path fill-rule="evenodd" clip-rule="evenodd" d="M14 14L31.1069 23.9702L30.7944 24.491L14 14Z" fill="#6999FF"/>
<path fill-rule="evenodd" clip-rule="evenodd" d="M14 14L30.8571 24.3868L30.5323 24.8998L14 14Z" fill="#6899FF"/>
<path fill-rule="evenodd" clip-rule="evenodd" d="M14 14L30.5973 24.7979L30.259 25.303L14 14Z" fill="#6798FF"/>
<path fill-rule="evenodd" clip-rule="evenodd" d="M14 14L30.3274 25.2022L29.9779 25.6984L14 14Z" fill="#6697FF"/>
<path fill-rule="evenodd" clip-rule="evenodd" d="M14 14L30.0474 25.5987L29.6856 26.087L14 14Z" fill="#6597FF"/>
<path fill-rule="evenodd" clip-rule="evenodd" d="M14 14L29.7584 25.9896L29.3843 26.4678L14 14Z" fill="#6496FF"/>
<path fill-rule="evenodd" clip-rule="evenodd" d="M14 14L29.4594 26.3726L29.0741 26.8419L14 14Z" fill="#6395FF"/>
<path fill-rule="evenodd" clip-rule="evenodd" d="M14 14L29.1502 26.7478L28.7538 27.2081L14 14Z" fill="#6294FF"/>
<path fill-rule="evenodd" clip-rule="evenodd" d="M14 14L28.8333 27.1163L28.4256 27.5665L14 14Z" fill="#6194FF"/>
<path fill-rule="evenodd" clip-rule="evenodd" d="M14 14L28.5074 27.4758L28.0885 27.916L14 14Z" fill="#6093FF"/>
<path fill-rule="evenodd" clip-rule="evenodd" d="M14 14L28.1714 27.8275L27.7424 28.2576L14 14Z" fill="#5F92FF"/>
<path fill-rule="evenodd" clip-rule="evenodd" d="M14 14L27.8275 28.1713L27.3885 28.5902L14 14Z" fill="#5E92FF"/>
<path fill-rule="evenodd" clip-rule="evenodd" d="M14 14L27.4758 28.5073L27.0256 28.915L14 14Z" fill="#5D91FF"/>
<path fill-rule="evenodd" clip-rule="evenodd" d="M14 14L27.1163 28.8332L26.656 29.2297L14 14Z" fill="#5C90FF"/>
<path fill-rule="evenodd" clip-rule="evenodd" d="M14 14L26.7478 29.1502L26.2786 29.5355L14 14Z" fill="#5B90FF"/>
<path fill-rule="evenodd" clip-rule="evenodd" d="M14 14L26.3726 29.4593L25.8933 29.8323L14 14Z" fill="#5A8FFF"/>
<path fill-rule="evenodd" clip-rule="evenodd" d="M14 14L25.9896 29.7584L25.5013 30.1201L14 14Z" fill="#598EFF"/>
<path fill-rule="evenodd" clip-rule="evenodd" d="M14 14L25.5987 30.0473L25.1026 30.3968L14 14Z" fill="#588EFF"/>
<path fill-rule="evenodd" clip-rule="evenodd" d="M14 14L25.2022 30.3273L24.696 30.6644L14 14Z" fill="#578DFF"/>
<path fill-rule="evenodd" clip-rule="evenodd" d="M14 14L24.7979 30.5972L24.2838 30.922L14 14Z" fill="#568CFF"/>
<path fill-rule="evenodd" clip-rule="evenodd" d="M14 14L24.3869 30.8571L23.8661 31.1696L14 14Z" fill="#558CFF"/>
<path fill-rule="evenodd" clip-rule="evenodd" d="M14 14L23.9702 31.1068L23.4416 31.4059L14 14Z" fill="#548BFF"/>
<path fill-rule="evenodd" clip-rule="evenodd" d="M14 14L23.5469 31.3465L23.0115 31.6321L14 14Z" fill="#538AFF"/>
<path fill-rule="evenodd" clip-rule="evenodd" d="M14 14L23.119 31.575L22.5758 31.8483L14 14Z" fill="#528AFF"/>
<path fill-rule="evenodd" clip-rule="evenodd" d="M14 14L22.6845 31.7945L22.1357 32.0532L14 14Z" fill="#5189FF"/>
<path fill-rule="evenodd" clip-rule="evenodd" d="M14 14L22.2454 32.0017L21.6899 32.2481L14 14Z" fill="#5088FF"/>
<path fill-rule="evenodd" clip-rule="evenodd" d="M14 14L21.8008 32.1988L21.2397 32.4307L14 14Z" fill="#4F88FF"/>
<path fill-rule="evenodd" clip-rule="evenodd" d="M14 14L21.3517 32.3848L20.785 32.6032L14 14Z" fill="#4E87FF"/>
<path fill-rule="evenodd" clip-rule="evenodd" d="M14 14L20.8992 32.5595L20.3269 32.7644L14 14Z" fill="#4D86FF"/>
<path fill-rule="evenodd" clip-rule="evenodd" d="M14 14L20.4411 32.723L19.8643 32.9134L14 14Z" fill="#4C86FF"/>
<path fill-rule="evenodd" clip-rule="evenodd" d="M14 14L19.9797 32.8753L19.3984 33.0523L14 14Z" fill="#4B85FF"/>
<path fill-rule="evenodd" clip-rule="evenodd" d="M14 14L19.5149 33.0164L18.9291 33.1788L14 14Z" fill="#4A84FF"/>
<path fill-rule="evenodd" clip-rule="evenodd" d="M14 14L19.0467 33.1464L18.4565 33.2942L14 14Z" fill="#4984FF"/>
<path fill-rule="evenodd" clip-rule="evenodd" d="M14 14L18.5752 33.2651L17.9827 33.3972L14 14Z" fill="#4883FF"/>
<path fill-rule="evenodd" clip-rule="evenodd" d="M14 14L18.1003 33.3704L17.5045 33.4891L14 14Z" fill="#4782FF"/>
<path fill-rule="evenodd" clip-rule="evenodd" d="M14 14L17.6243 33.4656L17.0262 33.5697L14 14Z" fill="#4681FF"/>
<path fill-rule="evenodd" clip-rule="evenodd" d="M14 14L17.145 33.5484L16.5446 33.6381L14 14Z" fill="#4581FF"/>
<path fill-rule="evenodd" clip-rule="evenodd" d="M14 14L16.6645 33.6201L16.0619 33.694L14 14Z" fill="#4480FF"/>
<path fill-rule="evenodd" clip-rule="evenodd" d="M14 14L16.1818 33.6795L15.5781 33.7388L14 14Z" fill="#437FFF"/>
<path fill-rule="evenodd" clip-rule="evenodd" d="M14 14L15.699 33.7276L15.0931 33.7724L14 14Z" fill="#427FFF"/>
<path fill-rule="evenodd" clip-rule="evenodd" d="M14 14L15.2141 33.7635L14.607 33.7926L14 14Z" fill="#417EFF"/>
<path fill-rule="evenodd" clip-rule="evenodd" d="M14 14L14.7291 33.787L14.121 33.8016L14 14Z" fill="#407DFF"/>
<path fill-rule="evenodd" clip-rule="evenodd" d="M13.9999 14L14.2429 33.7982H13.6348L13.9999 14Z" fill="#3F7DFF"/>
<path fill-rule="evenodd" clip-rule="evenodd" d="M13.9995 14L13.7565 33.7982L13.1494 33.7836L13.9995 14Z" fill="#3E7CFF"/>
<path fill-rule="evenodd" clip-rule="evenodd" d="M13.9997 14L13.2706 33.787L12.6636 33.7568L13.9997 14Z" fill="#3D7BFF"/>
<path fill-rule="evenodd" clip-rule="evenodd" d="M14.0002 14L12.7861 33.7635L12.1802 33.7187L14.0002 14Z" fill="#3C7BFF"/>
<path fill-rule="evenodd" clip-rule="evenodd" d="M14.0001 14L12.3011 33.7276L11.6963 33.6683L14.0001 14Z" fill="#3B7AFF"/>
<path fill-rule="evenodd" clip-rule="evenodd" d="M13.9998 14L11.8169 33.6795L11.2144 33.6056L13.9998 14Z" fill="#3A79FF"/>
<path fill-rule="evenodd" clip-rule="evenodd" d="M13.9998 14L11.3353 33.6201L10.7339 33.5305L13.9998 14Z" fill="#3979FF"/>
<path fill-rule="evenodd" clip-rule="evenodd" d="M14 14L10.8539 33.5484L10.2559 33.4454L14 14Z" fill="#3878FF"/>
<path fill-rule="evenodd" clip-rule="evenodd" d="M13.9995 14L10.3751 33.4656L9.7793 33.3468L13.9995 14Z" fill="#3777FF"/>
<path fill-rule="evenodd" clip-rule="evenodd" d="M13.9996 14L9.89926 33.3704L9.30566 33.2382L13.9996 14Z" fill="#3677FF"/>
<path fill-rule="evenodd" clip-rule="evenodd" d="M13.9998 14L9.42457 33.2651L8.83545 33.1172L13.9998 14Z" fill="#3576FF"/>
<path fill-rule="evenodd" clip-rule="evenodd" d="M13.9997 14L8.95295 33.1464L8.36719 32.9851L13.9997 14Z" fill="#3475FF"/>
<path fill-rule="evenodd" clip-rule="evenodd" d="M14 14L8.48509 33.0164L7.90381 32.8406L14 14Z" fill="#3375FF"/>
<path fill-rule="evenodd" clip-rule="evenodd" d="M14.0003 14L8.02065 32.8753L7.44385 32.6849L14.0003 14Z" fill="#3274FF"/>
<path fill-rule="evenodd" clip-rule="evenodd" d="M13.9998 14L7.55865 32.723L6.98633 32.5192L13.9998 14Z" fill="#3173FF"/>
<path fill-rule="evenodd" clip-rule="evenodd" d="M13.9996 14L7.10041 32.5595L6.53369 32.3411L13.9996 14Z" fill="#3073FF"/>
<path fill-rule="evenodd" clip-rule="evenodd" d="M13.9999 14L6.64706 32.3848L6.08594 32.1518L13.9999 14Z" fill="#2F72FF"/>
<path fill-rule="evenodd" clip-rule="evenodd" d="M13.9999 14L6.19796 32.1988L5.64355 31.9524L13.9999 14Z" fill="#2E71FF"/>
<path fill-rule="evenodd" clip-rule="evenodd" d="M13.9998 14L5.75437 32.0017L5.20557 31.7419L13.9998 14Z" fill="#2D71FF"/>
<path fill-rule="evenodd" clip-rule="evenodd" d="M13.9997 14L5.31517 31.7945L4.77197 31.5212L13.9997 14Z" fill="#2C70FF"/>
<path fill-rule="evenodd" clip-rule="evenodd" d="M14.0001 14L4.88106 31.575L4.3457 31.2894L14.0001 14Z" fill="#2B6FFF"/>
<path fill-rule="evenodd" clip-rule="evenodd" d="M14 14L4.4531 31.3465L3.92334 31.0475L14 14Z" fill="#2A6EFF"/>
<path fill-rule="evenodd" clip-rule="evenodd" d="M13.9998 14L4.02959 31.1068L3.50879 30.7944L13.9998 14Z" fill="#296EFF"/>
<path fill-rule="evenodd" clip-rule="evenodd" d="M13.9996 14L3.61271 30.8571L3.09863 30.5323L13.9996 14Z" fill="#286DFF"/>
<path fill-rule="evenodd" clip-rule="evenodd" d="M13.9998 14L3.2019 30.5972L2.69678 30.259L13.9998 14Z" fill="#276CFF"/>
<path fill-rule="evenodd" clip-rule="evenodd" d="M14.0002 14L2.79792 30.3273L2.30176 29.9779L14.0002 14Z" fill="#266CFF"/>
<path fill-rule="evenodd" clip-rule="evenodd" d="M13.9996 14L2.40092 30.0473L1.9126 29.6856L13.9996 14Z" fill="#256BFF"/>
<path fill-rule="evenodd" clip-rule="evenodd" d="M14.0002 14L2.01061 29.7584L1.53125 29.3843L14.0002 14Z" fill="#246AFF"/>
<path fill-rule="evenodd" clip-rule="evenodd" d="M14.0001 14L1.62748 29.4593L1.1582 29.074L14.0001 14Z" fill="#236AFF"/>
<path fill-rule="evenodd" clip-rule="evenodd" d="M13.9997 14L1.25182 29.1502L0.791504 28.7537L13.9997 14Z" fill="#2269FF"/>
<path fill-rule="evenodd" clip-rule="evenodd" d="M14.0002 14L0.883834 28.8332L0.433594 28.4256L14.0002 14Z" fill="#2168FF"/>
<path fill-rule="evenodd" clip-rule="evenodd" d="M14 14L0.524144 28.5073L0.0839844 28.0884L14 14Z" fill="#2068FF"/>
<path fill-rule="evenodd" clip-rule="evenodd" d="M13.9998 14L0.172267 28.1713L-0.257812 27.7424L13.9998 14Z" fill="#1F67FF"/>
<path fill-rule="evenodd" clip-rule="evenodd" d="M13.9994 14L-0.17306 27.8275L-0.59082 27.3884L13.9994 14Z" fill="#1E66FF"/>
<path fill-rule="evenodd" clip-rule="evenodd" d="M13.9995 14L-0.507847 27.4758L-0.915527 27.0256L13.9995 14Z" fill="#1D66FF"/>
<path fill-rule="evenodd" clip-rule="evenodd" d="M13.9998 14L-0.8335 27.1163L-1.22998 26.656L13.9998 14Z" fill="#1C65FF"/>
<path fill-rule="evenodd" clip-rule="evenodd" d="M14.0004 14L-1.14988 26.7478L-1.53516 26.2785L14.0004 14Z" fill="#1B64FF"/>
<path fill-rule="evenodd" clip-rule="evenodd" d="M13.9998 14L-1.45956 26.3726L-1.83252 25.8932L13.9998 14Z" fill="#1A64FF"/>
<path fill-rule="evenodd" clip-rule="evenodd" d="M13.9996 14L-1.75885 25.9896L-2.12061 25.5012L13.9996 14Z" fill="#1963FF"/>
<path fill-rule="evenodd" clip-rule="evenodd" d="M14.0003 14L-2.04704 25.5987L-2.39648 25.1025L14.0003 14Z" fill="#1862FF"/>
<path fill-rule="evenodd" clip-rule="evenodd" d="M13.9999 14L-2.32743 25.2022L-2.66455 24.696L13.9999 14Z" fill="#1762FF"/>
<path fill-rule="evenodd" clip-rule="evenodd" d="M13.9997 14L-2.59756 24.7979L-2.92236 24.2838L13.9997 14Z" fill="#1661FF"/>
<path fill-rule="evenodd" clip-rule="evenodd" d="M13.9997 14L-2.85744 24.3868L-3.16992 23.866L13.9997 14Z" fill="#1560FF"/>
<path fill-rule="evenodd" clip-rule="evenodd" d="M14.0002 14L-3.10672 23.9702L-3.40576 23.4416L14.0002 14Z" fill="#1460FF"/>
<path fill-rule="evenodd" clip-rule="evenodd" d="M14 14L-3.34658 23.5468L-3.6333 23.0115L14 14Z" fill="#135FFF"/>
<path fill-rule="evenodd" clip-rule="evenodd" d="M13.9997 14L-3.57647 23.119L-3.84863 22.5758L13.9997 14Z" fill="#125EFF"/>
<path fill-rule="evenodd" clip-rule="evenodd" d="M14.0001 14L-3.7945 22.6844L-4.05322 22.1356L14.0001 14Z" fill="#115EFF"/>
<path fill-rule="evenodd" clip-rule="evenodd" d="M13.9996 14L-4.00214 22.2454L-4.24854 21.6899L13.9996 14Z" fill="#105DFF"/>
<path fill-rule="evenodd" clip-rule="evenodd" d="M14.0002 14L-4.19868 21.8008L-4.43164 21.2396L14.0002 14Z" fill="#0F5CFF"/>
<path fill-rule="evenodd" clip-rule="evenodd" d="M13.9997 14L-4.38512 21.3516L-4.60352 20.7849L13.9997 14Z" fill="#0E5BFF"/>
<path fill-rule="evenodd" clip-rule="evenodd" d="M13.9998 14L-4.55969 20.8992L-4.76465 20.3268L13.9998 14Z" fill="#0D5BFF"/>
<path fill-rule="evenodd" clip-rule="evenodd" d="M13.9999 14L-4.72429 20.4411L-4.91357 19.8643L13.9999 14Z" fill="#0C5AFF"/>
<path fill-rule="evenodd" clip-rule="evenodd" d="M14.0001 14L-4.87641 19.9796L-5.05225 19.3984L14.0001 14Z" fill="#0B59FF"/>
<path fill-rule="evenodd" clip-rule="evenodd" d="M14.0002 14L-5.01743 19.5148L-5.17871 18.9291L14.0002 14Z" fill="#0A59FF"/>
<path fill-rule="evenodd" clip-rule="evenodd" d="M13.9998 14L-5.14659 19.0467L-5.29443 18.4564L13.9998 14Z" fill="#0958FF"/>
<path fill-rule="evenodd" clip-rule="evenodd" d="M13.9998 14L-5.2653 18.5752L-5.39746 17.9827L13.9998 14Z" fill="#0857FF"/>
<path fill-rule="evenodd" clip-rule="evenodd" d="M13.9999 14L-5.37166 18.1003L-5.48926 17.5044L13.9999 14Z" fill="#0757FF"/>
<path fill-rule="evenodd" clip-rule="evenodd" d="M13.9999 14L-5.46566 17.6243L-5.56982 17.0262L13.9999 14Z" fill="#0656FF"/>
<path fill-rule="evenodd" clip-rule="evenodd" d="M13.9999 14L-5.54858 17.1449L-5.63818 16.5446L13.9999 14Z" fill="#0555FF"/>
<path fill-rule="evenodd" clip-rule="evenodd" d="M13.9997 14L-5.62042 16.6644L-5.69434 16.0619L13.9997 14Z" fill="#0455FF"/>
<path fill-rule="evenodd" clip-rule="evenodd" d="M14.0001 14L-5.67941 16.1817L-5.73877 15.578L14.0001 14Z" fill="#0354FF"/>
<path fill-rule="evenodd" clip-rule="evenodd" d="M14 14L-5.72766 15.699L-5.77246 15.0931L14 14Z" fill="#0253FF"/>
<path fill-rule="evenodd" clip-rule="evenodd" d="M13.9997 14L-5.76385 15.214L-5.79297 14.607L13.9997 14Z" fill="#0153FF"/>
<path fill-rule="evenodd" clip-rule="evenodd" d="M13.9998 14L-5.7872 14.7291L-5.80176 14.1209L13.9998 14Z" fill="#0052FF"/>
<path fill-rule="evenodd" clip-rule="evenodd" d="M13.9996 13.9999L-5.7998 14.243V13.7569L13.9996 13.9999Z" fill="white"/>
</g>
</svg>
