<svg width="28" height="28" viewBox="0 0 28 28" fill="none" xmlns="http://www.w3.org/2000/svg">
<path d="M15.4153 0.350723C16.1455 0.92459 16.5994 1.63369 17.0404 2.44118C19.0202 6.01911 21.9611 8.68348 25.3959 10.811C25.7471 11.0298 26.0963 11.2515 26.4426 11.478C26.5224 11.5301 26.6021 11.5822 26.6843 11.6359C27.3229 12.1017 27.7368 12.7017 27.911 13.4732C28.0241 14.2441 27.8613 14.9284 27.464 15.5964C26.9294 16.2367 26.2473 16.6289 25.5244 17.0268C21.7822 19.0988 18.9656 22.1785 16.8282 25.8446C16.2807 26.7755 15.7842 27.5208 14.7321 27.8883C13.928 28.0865 13.2018 27.9963 12.4781 27.5888C11.6992 27.0449 11.2802 26.2186 10.8192 25.4129C10.0183 24.0252 9.06435 22.7331 8.02051 21.5188C7.94489 21.4295 7.86926 21.3402 7.79135 21.2482C7.30926 20.6903 6.80374 20.1967 6.2326 19.7309C6.11866 19.6377 6.00472 19.5445 5.88733 19.4485C4.80016 18.5712 3.66488 17.7804 2.46255 17.0687C2.3281 16.9887 2.3281 16.9887 2.19093 16.907C2.01794 16.8046 1.84417 16.7036 1.66953 16.604C1.02213 16.2222 0.53683 15.7723 0.163496 15.1145C-0.068721 14.2067 -0.0819582 13.4432 0.310161 12.5793C0.825946 11.817 1.50621 11.3913 2.29362 10.945C4.10116 9.88094 5.73791 8.68132 7.2383 7.21557C7.31623 7.14456 7.39416 7.07354 7.47445 7.00038C8.89277 5.67603 9.99515 3.91534 10.9961 2.26347C11.0452 2.1831 11.0942 2.10273 11.1447 2.01993C11.2378 1.86646 11.3298 1.71232 11.4205 1.5574C11.8111 0.91161 12.306 0.400232 13.0289 0.120687C13.8127 -0.0619227 14.7119 -0.0754172 15.4153 0.350723Z" fill="#FF3600"/>
<path d="M13.943 0.0639648C13.943 3.08776 13.943 6.11156 13.943 9.22699C13.3529 9.37449 12.7629 9.52199 12.155 9.67397C10.909 10.304 10.0209 11.1687 9.49414 12.4746C9.14069 13.6313 9.28436 14.9337 9.75953 16.0294C10.3044 17.0508 11.1247 17.7809 12.155 18.2783C12.7451 18.4258 13.3351 18.5733 13.943 18.7252C13.943 21.7859 13.943 24.8466 13.943 28C12.7704 27.7655 12.2208 27.5384 11.5474 26.6102C11.1915 26.0731 10.8676 25.5173 10.54 24.9628C9.808 23.736 8.94607 22.6057 8.02051 21.5189C7.9446 21.4291 7.86869 21.3394 7.79047 21.2469C7.30842 20.6897 6.80332 20.1964 6.2326 19.7309C6.11866 19.6377 6.00472 19.5446 5.88733 19.4485C4.80016 18.5712 3.66488 17.7804 2.46255 17.0687C2.3281 16.9887 2.3281 16.9887 2.19093 16.907C2.01794 16.8047 1.84417 16.7036 1.66953 16.6041C1.02213 16.2222 0.536829 15.7723 0.163496 15.1145C-0.068721 14.2068 -0.0819582 13.4432 0.310161 12.5793C0.825946 11.817 1.50621 11.3913 2.29362 10.9451C4.10116 9.88097 5.73791 8.68134 7.2383 7.21559C7.31623 7.14458 7.39416 7.07357 7.47445 7.0004C8.89277 5.67605 9.99514 3.91537 10.9961 2.26349C11.0452 2.18312 11.0942 2.10276 11.1447 2.01995C11.2378 1.86648 11.3298 1.71234 11.4205 1.55743C12.0087 0.584942 12.7759 0.0639648 13.943 0.0639648Z" fill="#FFB08A"/>
<path d="M16.5133 10.0022C17.4891 10.7149 18.3699 11.71 18.6364 12.9145C18.811 14.4268 18.6129 15.6553 17.7215 16.9164C16.8594 17.9442 15.5763 18.6174 14.2365 18.7519C12.7669 18.7934 11.5701 18.2253 10.507 17.2376C10.1036 16.8164 9.84173 16.3398 9.58512 15.8199C9.5455 15.75 9.50589 15.6802 9.46508 15.6082C9.05256 14.67 9.10934 13.3246 9.42448 12.3698C9.94904 11.1318 10.9497 10.0974 12.1832 9.56918C13.6642 8.99125 15.1617 9.13187 16.5133 10.0022Z" fill="#FFAE87"/>
<path d="M13.9431 9.33871C13.9431 12.3994 13.9431 15.4601 13.9431 18.6135C12.517 18.6135 11.5943 18.2543 10.5803 17.2686C9.49032 16.1156 9.20402 15.0165 9.21932 13.4536C9.31399 12.1296 10.0221 11.2129 10.947 10.3165C11.8967 9.5089 12.6989 9.33871 13.9431 9.33871Z" fill="#FF3600"/>
</svg>
