<svg width="20" height="20" viewBox="0 0 20 20" fill="none" xmlns="http://www.w3.org/2000/svg">
<path d="M20 10C20 4.47715 15.5228 0 10 0C4.47715 0 0 4.47715 0 10C0 15.5228 4.47715 20 10 20C15.5228 20 20 15.5228 20 10Z" fill="#0052FF"/>
<path d="M10.0028 13.5156C8.06044 13.5156 6.48718 11.9424 6.48718 10C6.48718 8.05762 8.06044 6.48438 10.0028 6.48438C11.7431 6.48438 13.1874 7.75293 13.4657 9.41406H17.0077C16.7089 5.80469 13.6884 2.96875 10.0028 2.96875C6.12097 2.96875 2.97156 6.11816 2.97156 10C2.97156 13.8818 6.12097 17.0312 10.0028 17.0312C13.6884 17.0312 16.7089 14.1953 17.0077 10.5859H13.4628C13.1845 12.2471 11.7431 13.5156 10.0028 13.5156Z" fill="white"/>
</svg>
