<svg width="20" height="20" viewBox="0 0 20 20" fill="none" xmlns="http://www.w3.org/2000/svg">
<path d="M19.0038 0.61084L11.1998 6.43117L12.643 2.99725L19.0038 0.61084Z" fill="#E2761B"/>
<path d="M0.987958 0.61084L8.72914 6.4863L7.35659 2.99725L0.987958 0.61084ZM16.1958 14.1024L14.1174 17.3L18.5644 18.5286L19.8429 14.1732L16.1958 14.1024ZM0.164429 14.1732L1.43502 18.5286L5.88208 17.3L3.80364 14.1024L0.164429 14.1732Z" fill="#E4761B"/>
<path d="M5.63118 8.69945L4.39197 10.5818L8.80765 10.7787L8.65079 6.01375L5.63118 8.69945ZM14.3606 8.69945L11.3018 5.95862L11.1998 10.7787L15.6077 10.5818L14.3606 8.69945ZM5.88216 17.3L8.53314 16.0005L6.24295 14.2047L5.88216 17.3ZM11.4586 16.0005L14.1175 17.3L13.7488 14.2047L11.4586 16.0005Z" fill="#E4761B"/>
<path d="M14.1174 17.3L11.4585 16.0004L11.6703 17.741L11.6468 18.4735L14.1174 17.3ZM5.88208 17.3L8.35267 18.4735L8.33698 17.741L8.53306 16.0004L5.88208 17.3Z" fill="#D7C1B3"/>
<path d="M8.39194 13.0549L6.18018 12.4012L7.74096 11.6844L8.39194 13.0549ZM11.5998 13.0549L12.2508 11.6844L13.8194 12.4012L11.5998 13.0549Z" fill="#233447"/>
<path d="M5.88214 17.3L6.25861 14.1023L3.80371 14.1732L5.88214 17.3ZM13.741 14.1023L14.1174 17.3L16.1959 14.1732L13.741 14.1023ZM15.6076 10.5818L11.1998 10.7787L11.6076 13.0548L12.2586 11.6844L13.8272 12.4011L15.6076 10.5818ZM6.18018 12.4011L7.74881 11.6844L8.39195 13.0548L8.80763 10.7787L4.39195 10.5818L6.18018 12.4011Z" fill="#CD6116"/>
<path d="M4.39197 10.5818L6.24295 14.2047L6.1802 12.4011L4.39197 10.5818ZM13.8273 12.4011L13.7488 14.2047L15.6077 10.5818L13.8273 12.4011ZM8.80765 10.7787L8.39197 13.0548L8.90961 15.7405L9.02726 12.2042L8.80765 10.7787ZM11.1998 10.7787L10.988 12.1964L11.0822 15.7405L11.6077 13.0548L11.1998 10.7787Z" fill="#E4751F"/>
<path d="M11.6076 13.0548L11.0821 15.7405L11.4586 16.0004L13.7488 14.2047L13.8272 12.4011L11.6076 13.0548ZM6.18018 12.4011L6.24292 14.2047L8.53312 16.0004L8.90959 15.7405L8.39194 13.0548L6.18018 12.4011Z" fill="#F6851B"/>
<path d="M11.6468 18.4735L11.6703 17.741L11.4742 17.5678H8.51737L8.33698 17.741L8.35267 18.4735L5.88208 17.3L6.74483 18.0088L8.49385 19.2296H11.4978L13.2546 18.0088L14.1174 17.3L11.6468 18.4735Z" fill="#C0AD9E"/>
<path d="M11.4586 16.0004L11.0821 15.7405H8.90958L8.53311 16.0004L8.33704 17.741L8.51743 17.5678H11.4743L11.6704 17.741L11.4586 16.0004Z" fill="#161616"/>
<path d="M19.3331 6.80922L19.9998 3.59583L19.0037 0.61084L11.4586 6.23427L14.3605 8.69945L18.4625 9.90447L19.3723 8.84121L18.9801 8.55768L19.6076 7.98273L19.1213 7.60469L19.7488 7.12425L19.3331 6.80922ZM-0.000244141 3.59583L0.666423 6.80922L0.242893 7.12425L0.870344 7.60469L0.391913 7.98273L1.01936 8.55768L0.627207 8.84121L1.52917 9.90447L5.63113 8.69945L8.53309 6.23427L0.987991 0.61084L-0.000244141 3.59583Z" fill="#763D16"/>
<path d="M18.4625 9.90446L14.3605 8.69944L15.6076 10.5818L13.7487 14.2047L16.1958 14.1732H19.8429L18.4625 9.90446ZM5.6311 8.69944L1.52913 9.90446L0.164429 14.1732H3.80364L6.24286 14.2047L4.39188 10.5818L5.6311 8.69944ZM11.1997 10.7787L11.4585 6.23427L12.6507 2.99725H7.35659L8.53306 6.23427L8.80757 10.7787L8.90168 12.2121L8.90953 15.7405H11.0821L11.0978 12.2121L11.1997 10.7787Z" fill="#F6851B"/>
</svg>
