<svg width="11" height="24" viewBox="0 0 11 24" fill="none" xmlns="http://www.w3.org/2000/svg">
<path fill-rule="evenodd" clip-rule="evenodd" d="M1.76182 0C2.40565 0.180461 2.7876 0.842255 2.62207 1.49015C2.62071 1.49456 2.61969 1.49932 2.61833 1.50407C2.61698 1.50881 2.61596 1.51323 2.61461 1.51798C2.54778 1.76764 2.4796 2.02136 2.41074 2.27882C2.40904 2.28493 2.40768 2.2907 2.40599 2.29681C2.40429 2.30292 2.40294 2.30868 2.40124 2.31478C1.96705 3.9352 1.49554 5.6947 1.02539 7.44945L4.98876 8.51118C5.45891 6.75677 5.93041 4.99728 6.3646 3.37686C6.3663 3.37075 6.36766 3.36499 6.36935 3.35889C6.37105 3.35278 6.3724 3.34701 6.3741 3.3409C6.65395 2.25813 6.0142 1.14993 4.93652 0.85108L4.91854 0.846327L4.90056 0.841589L2.93686 0.315461L1.76182 0.000679089V0Z" fill="#FAFAFA"/>
<path fill-rule="evenodd" clip-rule="evenodd" d="M0.813646 8.24156C0.563646 9.17541 0.315341 10.1015 0.0751781 10.998C0.0734821 11.0041 0.0721288 11.0099 0.0704328 11.016C0.0687367 11.0221 0.0673752 11.0278 0.0656792 11.034C-0.214172 12.1167 0.425589 13.2249 1.50327 13.5238L1.52125 13.5285L1.53922 13.5333L3.50293 14.0594C3.67219 13.4281 3.84859 12.7704 4.02905 12.0957C4.03074 12.0896 4.0321 12.0838 4.03379 12.0777C4.03549 12.0716 4.03685 12.0658 4.03855 12.0597C4.27871 11.1632 4.52701 10.2371 4.77735 9.30329L0.813985 8.24121L0.813646 8.24156Z" fill="#FAFAFA"/>
<path fill-rule="evenodd" clip-rule="evenodd" d="M5.56934 9.51573C5.12734 11.1653 4.6918 12.7908 4.29492 14.2715L9.84342 15.7583C10.0782 14.8817 10.3265 13.9547 10.5819 13.0018C10.5836 12.9961 10.5849 12.9899 10.5866 12.9838C10.5883 12.9777 10.5897 12.972 10.5914 12.9659C10.8712 11.8831 10.2315 10.7749 9.15381 10.476L9.13583 10.4713L9.11785 10.4665L5.56866 9.51538L5.56934 9.51573Z" fill="#FAFAFA"/>
<path fill-rule="evenodd" clip-rule="evenodd" d="M8.89442 24C8.25059 23.8199 7.86864 23.1577 8.03418 22.5102C8.03553 22.5054 8.03655 22.501 8.0379 22.4963C8.03926 22.4915 8.04028 22.4871 8.04164 22.4824C8.10846 22.2327 8.17665 21.979 8.24551 21.7215C8.2472 21.7154 8.24855 21.7096 8.25025 21.7035C8.25195 21.6974 8.2533 21.6917 8.255 21.6856C8.68919 20.0652 9.1607 18.3056 9.63085 16.5512L5.66783 15.4895C5.19768 17.2439 4.72617 19.0034 4.29198 20.6238C4.29028 20.6296 4.28892 20.6357 4.28722 20.6418C4.28553 20.6479 4.28417 20.6537 4.28248 20.6598C4.00263 21.7426 4.64238 22.8508 5.72006 23.1496L5.73804 23.1544L5.75602 23.1591L7.71973 23.6852L8.89476 24H8.89442Z" fill="#FAFAFA"/>
</svg>
