<svg width="40" height="40" viewBox="0 0 40 40" fill="none" xmlns="http://www.w3.org/2000/svg">
<path fill-rule="evenodd" clip-rule="evenodd" d="M37.7521 29.2211C39.1883 26.4619 40 23.3257 40 20C40 8.9543 31.0457 0 20 0C8.9543 0 0 8.9543 0 20C0 31.0457 8.9543 40 20 40C23.3257 40 26.4619 39.1883 29.2211 37.7521C29.0768 37.1921 29 36.605 29 36C29 32.134 32.134 29 36 29C36.605 29 37.1921 29.0768 37.7521 29.2211ZM36.0015 32C36.001 32 36.0005 32 36 32C33.7909 32 32 33.7909 32 36C32 36.0005 32 36.001 32 36.0015C33.5151 34.8634 34.8634 33.5151 36.0015 32Z" fill="#EDEEF2"/>
<mask id="mask0_778_1751" style="mask-type:alpha" maskUnits="userSpaceOnUse" x="0" y="0" width="40" height="40">
<circle cx="20" cy="20" r="20" fill="#C4C4C4"/>
</mask>
<g mask="url(#mask0_778_1751)">
<path fill-rule="evenodd" clip-rule="evenodd" d="M33.9352 39.4266C35.2503 38.1195 36.001 36.6091 36.001 35C36.001 33.9821 35.7006 33.0036 35.1469 32.0912C33.3476 32.4821 32 34.0837 32 36C32 37.4536 32.7754 38.7262 33.9352 39.4266ZM31.4272 41.3001C29.9407 40.0164 29 38.1181 29 36C29 33.232 30.6066 30.8393 32.9382 29.7034C30.0287 27.4587 25.3177 26 20.001 26C11.1644 26 4.00098 30.0294 4.00098 35C4.00098 39.9706 11.1644 44 20.001 44C24.4767 44 28.5233 42.9663 31.4272 41.3001Z" fill="#838799"/>
<circle cx="20.001" cy="17" r="6" fill="#838799"/>
</g>
</svg>
